<mxfile host="app.diagrams.net" modified="2022-03-14T23:03:48.240Z" agent="5.0 (Windows NT 10.0; Win64; x64) AppleWebKit/537.36 (KHTML, like Gecko) Chrome/99.0.4844.51 Safari/537.36" etag="zMgkpIfh6fcmkWpnzQLD" version="16.1.4" type="github">
  <diagram id="dyf_yjFYQJ4cvt4W44gf" name="Page-1">
    <mxGraphModel dx="1422" dy="762" grid="1" gridSize="10" guides="1" tooltips="1" connect="1" arrows="1" fold="1" page="1" pageScale="1" pageWidth="1500" pageHeight="1500" math="0" shadow="0">
      <root>
        <mxCell id="0" />
        <mxCell id="1" parent="0" />
        <mxCell id="JCk_Zbr7SEMXJE-FoX-Q-25" value="" style="rounded=0;whiteSpace=wrap;html=1;dashed=1;labelBackgroundColor=none;fontColor=default;" vertex="1" parent="1">
          <mxGeometry x="290" y="10" width="720" height="760" as="geometry" />
        </mxCell>
        <mxCell id="JCk_Zbr7SEMXJE-FoX-Q-2" value="Remote Desktop Connection" style="edgeStyle=orthogonalEdgeStyle;rounded=0;orthogonalLoop=1;jettySize=auto;html=1;fontStyle=1" edge="1" parent="1" source="JCk_Zbr7SEMXJE-FoX-Q-1">
          <mxGeometry relative="1" as="geometry">
            <mxPoint x="340" y="375" as="targetPoint" />
          </mxGeometry>
        </mxCell>
        <mxCell id="JCk_Zbr7SEMXJE-FoX-Q-1" value="Work station/Attacker&lt;br&gt;" style="sketch=0;pointerEvents=1;shadow=0;dashed=0;strokeColor=none;labelPosition=center;verticalLabelPosition=bottom;verticalAlign=top;outlineConnect=0;align=center;shape=mxgraph.office.servers.physical_host;fillColor=#2072B8;html=1;fontStyle=1" vertex="1" parent="1">
          <mxGeometry x="80" y="320" width="50" height="110" as="geometry" />
        </mxCell>
        <mxCell id="JCk_Zbr7SEMXJE-FoX-Q-21" value="" style="rounded=0;whiteSpace=wrap;html=1;labelBackgroundColor=none;fontColor=default;dashed=1;labelPosition=center;verticalLabelPosition=top;align=center;verticalAlign=bottom;strokeColor=#009900;" vertex="1" parent="1">
          <mxGeometry x="480" y="60" width="420" height="670" as="geometry" />
        </mxCell>
        <mxCell id="JCk_Zbr7SEMXJE-FoX-Q-7" style="edgeStyle=orthogonalEdgeStyle;rounded=0;orthogonalLoop=1;jettySize=auto;html=1;entryX=0.01;entryY=0.542;entryDx=0;entryDy=0;entryPerimeter=0;" edge="1" parent="1" source="JCk_Zbr7SEMXJE-FoX-Q-4" target="JCk_Zbr7SEMXJE-FoX-Q-6">
          <mxGeometry relative="1" as="geometry" />
        </mxCell>
        <mxCell id="JCk_Zbr7SEMXJE-FoX-Q-4" value="192.168.1.1" style="pointerEvents=1;shadow=0;dashed=0;html=1;strokeColor=none;fillColor=#4495D1;labelPosition=center;verticalLabelPosition=bottom;verticalAlign=top;align=center;outlineConnect=0;shape=mxgraph.veeam.hyper_v_vmware_host;fontStyle=1" vertex="1" parent="1">
          <mxGeometry x="350" y="320" width="108" height="104" as="geometry" />
        </mxCell>
        <mxCell id="JCk_Zbr7SEMXJE-FoX-Q-29" value="" style="rounded=0;whiteSpace=wrap;html=1;dashed=1;labelBackgroundColor=none;strokeColor=#FF6666;" vertex="1" parent="1">
          <mxGeometry x="690" y="130" width="140" height="530" as="geometry" />
        </mxCell>
        <mxCell id="JCk_Zbr7SEMXJE-FoX-Q-14" style="edgeStyle=orthogonalEdgeStyle;rounded=0;orthogonalLoop=1;jettySize=auto;html=1;" edge="1" parent="1" source="JCk_Zbr7SEMXJE-FoX-Q-6" target="JCk_Zbr7SEMXJE-FoX-Q-9">
          <mxGeometry relative="1" as="geometry" />
        </mxCell>
        <mxCell id="JCk_Zbr7SEMXJE-FoX-Q-15" style="edgeStyle=orthogonalEdgeStyle;rounded=0;orthogonalLoop=1;jettySize=auto;html=1;" edge="1" parent="1" source="JCk_Zbr7SEMXJE-FoX-Q-6" target="JCk_Zbr7SEMXJE-FoX-Q-8">
          <mxGeometry relative="1" as="geometry" />
        </mxCell>
        <mxCell id="JCk_Zbr7SEMXJE-FoX-Q-6" value="Kali Linux&lt;br&gt;192.168.1.8" style="sketch=0;aspect=fixed;html=1;points=[];align=center;image;fontSize=12;image=img/lib/mscae/VM_Linux.svg;fontStyle=1" vertex="1" parent="1">
          <mxGeometry x="520" y="320" width="104.35" height="96" as="geometry" />
        </mxCell>
        <mxCell id="JCk_Zbr7SEMXJE-FoX-Q-8" value="Capstone&lt;br&gt;192.168.1.105" style="sketch=0;aspect=fixed;html=1;points=[];align=center;image;fontSize=12;image=img/lib/mscae/VM_Linux.svg;fontStyle=1" vertex="1" parent="1">
          <mxGeometry x="710" y="170" width="108.7" height="100" as="geometry" />
        </mxCell>
        <mxCell id="JCk_Zbr7SEMXJE-FoX-Q-19" style="edgeStyle=orthogonalEdgeStyle;rounded=0;orthogonalLoop=1;jettySize=auto;html=1;" edge="1" parent="1" source="JCk_Zbr7SEMXJE-FoX-Q-9">
          <mxGeometry relative="1" as="geometry">
            <mxPoint x="1220" y="480" as="targetPoint" />
            <Array as="points">
              <mxPoint x="1220" y="550" />
              <mxPoint x="1220" y="480" />
            </Array>
          </mxGeometry>
        </mxCell>
        <mxCell id="JCk_Zbr7SEMXJE-FoX-Q-9" value="ELK&lt;br&gt;192.168.1.100" style="sketch=0;aspect=fixed;html=1;points=[];align=center;image;fontSize=12;image=img/lib/mscae/VM_Linux.svg;fontStyle=1" vertex="1" parent="1">
          <mxGeometry x="710" y="500" width="108.7" height="100" as="geometry" />
        </mxCell>
        <mxCell id="JCk_Zbr7SEMXJE-FoX-Q-16" value="Kibana&lt;br&gt;192.168.1.100:5601" style="shape=image;verticalLabelPosition=bottom;verticalAlign=top;imageAspect=0;aspect=fixed;image=data:image/png,iVBORw0KGgoAAAANSUhEUgAAA8AAAAFACAYAAABz+RVqAAAAAXNSR0IArs4c6QAAQABJREFUeAHsnQd8HMXZh2f27lSs5iITmimhk4AxsXQqLrIky0guVBEIYAzBspMvgZCEFBKCSCEkIZAOmEAoAUKEsVxk2bKaLaubYkroYEx1b5JV7nbne1fYINsqV3Znd+/+x0/4bnfmLc9smXcqY/iAAAiAAAiAAAiAAAiAAAiAAAiAAAiAAAiAAAiAAAiAAAiAAAiAAAiAAAiAAAiAAAiAAAiAAAiAAAiAAAiAAAiAAAiAAAiAAAiAAAiAAAiAAAiAAAiAAAiAAAiAAAiAAAiAAAiAAAiAAAiAAAiAAAiAAAiAAAiAAAiAAAiAAAiAAAiAAAiAAAiAAAiAAAiAAAiAAAiAAAiAAAiAAAiAAAiAAAiAAAiAAAiAAAiAAAiAAAiAAAiAAAiAAAiAAAiAAAiAAAiAAAiAAAiAAAiAAAiAAAiAAAiAAAiAAAiAAAiAAAiAAAiAAAiAAAiAAAiAAAiAAAiAAAiAAAiAAAiAAAiAAAiAAAiAAAiAAAiAAAiAAAiAAAiAAAiAAAiAAAiAAAiAAAiAAAiAAAiAAAiAAAiAAAiAAAiAAAiAAAiAAAiAAAiAAAiAAAiAAAiAAAiAAAiAAAiAAAiAAAiAAAiAAAiAAAiAAAiAAAiAAAiAAAiAAAiAAAiAAAiAAAiAAAiAAAiAAAiAAAiAAAiAAAiAAAiAAAiAAAiAAAiAAAiAAAiAAAiAAAiAAAiAAAiAAAiAAAiAAAiAAAiAAAiAAAiAAAiAAAiAAAiAAAiAAAiAAAiAAAiAAAiAAAiAAAiAAAiAAAiAAAiAAAiAAAiAAAiAAAiAAAiAAAiAAAiAAAiAAAiAAAiAAAiAAAiAAAiAAAiAAAiAAAiAAAiAAAiAAAiAAAiAAAiAAAiAAAiAAAiAQJAEeJDpDUu+e879wjBhEAQCUUqAK/yOlPIFpVHqPtwGARAAARAAARAAARAAgaAIKEGlRmIQAAHbEOCM/xvBr22KA4aAAAiAAAiAAAiAAAg4gIDbATbCRBAAgcMJcFafHDPqm4cfxm8QAAEQAAEQAAEQAAEQAIHBCaAHeHA2OAMCtiTAOX+NJSRdwssu77WlgTAKBEAABEAABEAABEAABGxKAD3ANi0YmAUCAxGgYc9bYnhMUfyTV+0a6DyOgQAIgAAIgAAIgAAIgAAIDE4APcCDs8EZELAZAb6fufns+PLrNtnMMJgDAiAAAiAAAiAAAiAAAo4ggB5gRxQTjIx2ApwzjSvKN5Kfnd8e7SzgPwiAAAiAAAiAAAiAAAiESgA9wKGSQz4QkEqA35y8ZP5SqSqhDARAAARAAARAAARAAAQijAAC4AgrULgTeQRo0at7U5Yu+EvkeQaPQAAEQAAEQAAEQAAEQEAuAQTAcnlDGwgER4Dz8uQJJT8MLhNSgwAIgAAIgAAIgAAIgAAIDEQAc4AHooJjIGADAjTvty35S+wqXso1G5gDE0AABEAABEAABEAABEDA8QQQADu+COFAZBLg7ylK/Gy+aO7+yPQPXoEACIAACIAACIAACICAfAIYAi2fOTSCwHAEdikeVpS0ZO7W4RLiPAiAAAiAAAiAAAiAAAiAQOAE0AMcOCukBAHTCdCCV72Kwi9OWlzyuunKoAAEQAAEQAAEQAAEQAAEoowAeoCjrMDhrs0JCH590pKStTa3EuaBAAiAAAiAAAiAAAiAgCMJIAB2ZLHB6IgkwPnPUpaVPBGRvsEpEAABEAABEAABEAABELABAQTANigEmAACTOEPj1y64E6QAAEQAAEQAAEQAAEQAAEQMI8AAmDz2EIyCAREgDO2JuW80xcElBiJQAAEQAAEQAAEQAAEQAAEQiaARbBCRoeMIGAAAc5fTk5MuIyXTvMbIA0iQAAEQAAEQAAEQAAEQAAEhiCAAHgIODgFAmYSoBWfP/Ywz0z+xNV7zdQD2SAAAiAAAiAAAiAAAiAAAp8RwBBoXAkgYAUBzjpcnM8csfT6D6xQD50gAAIgAAIgAAIgAAIgEI0E0AMcjaUOny0lQD2/KuP88sTykhctNQTKQQAEQAAEQAAEQAAEQCDKCKAHOMoKHO5aT0Aw9n8p5SWV1lsCC0AABEAABEAABEAABEAgugigBzi6yhveWkxA4fyu5KULHrDYDKgHARAAARAAARAAARAAgagkgB7gqCx2OG0FAdru6L9J5SW3WqEbOkEABEAABEAABEAABEAABBhDAIyrAAQkEKDgtzF5dOy1NP+XRkDjAwIgAAIgAAIgAAIgAAIgYAUBDIG2gjp0RhUBCn7f4q74C/kj13ZHleNwFgRAAARAAARAAARAAARsRgA9wDYrEJgTWQQ449tZrLsoecm1OyLLM3gDAiAAAiAAAiAAAiAAAs4jgB5g55UZLHYIAQp+u2nI84XJZTe87RCTYSYIgAAIgAAIgAAIgAAIRDQB9ABHdPHCOasIUPAraLLv3OSlJU1W2QC9IAACIAACIAACIAACIAAChxJAAHwoD/wCAUMIcIXdMnLZgjJDhEEICIAACIAACIAACIAACICAIQQQABuCEUJA4AsC1Pt7X3L5gj9+cQTfQAAEQAAEQAAEQAAEQAAE7EAAc4DtUAqwIWII0JzfiuSYUd+NGIfgCAiAAAiAAAiAAAiAAAhEEAH0AEdQYcIViwlw9gIFv1fwsstViy2BehAAARAAARAAARAAARAAgQEIIAAeAAoOgUDQBDj7wOPiMyn47Qg6LzKAAAiAAAiAAAiAAAiAAAhIIYAh0FIwQ0mEE9jrUtxFCc/e8EmE+wn3QAAEQAAEQAAEQAAEQMDRBBAAO7r4YLzVBGjOr08wfmnSkhtesdoW6AcBEAABEAABEAABEAABEBiaAIZAD80HZ0FgSAKciQUjl5ZUD5kIJ0EABEAABEAABEAABEAABGxBAAGwLYoBRjiRAOfsl8lLF/7LibbDZhAAARAAARAAARAAARCIRgIYAh2NpQ6fwyZAe/3+O2XpgtvDFgQBIAACIAACIAACIAACIAAC0gggAJaGGooihgBn9bTd0Tcjxh84AgIgAAIgAAIgAAIgAAJRQgABcJQUNNw0hgAtevVaMo+5mLY76jVGIqSAAAiAAAiAAAiAAAiAAAjIIoA5wLJIQ4/jCdCw5y0xPKaIl1+32/HOwAEQAAEQAAEQAAEQAAEQiEICCICjsNDhcigE+H7m5rPjy6/bFEpu5AEBEAABEAABEAABEAABELCeAIZAW18GsMDmBGi1Z40ryjeSn53fbnNTYR4IgAAIgAAIgAAIgAAIgMAQBNADPAQcnAKBzwjwm5OXzF8KGiAAAiAAAiAAAiAAAiAAAs4mgADY2eUH600mQIte3UvbHf3FZDUQDwIgAAIgAAIgAAIgAAIgIIEAAmAJkKHCoQQ4L0+eUPJDh1oPs0EABEAABEAABEAABEAABA4jgDnAhwHBTxDQCdC83zba6/cbvJRrIAICIAACIAACIAACIAACIBAZBBAAR0Y5wgtDCfD3FCV+Nu3122WoWAgDARAAARAAARAAARAAARCwlACGQFuKH8ptSGCX4mFFSUvmbrWhbTAJBEAABEAABEAABEAABEAgDALoAQ4DHrJGFgFa8KpXUfjFSYtLXo8sz+ANCIAACIAACIAACIAACICATgA9wLgOQIAIcMYF/XNd0pKStQACAiAAAiAAAiAAAiAAAiAQmQQQAEdmucKrIAkIzn5O2x09GWQ2JAcBEAABEAABEAABEAABEHAQAQTADiosmGoagYdGLl1wp2nSIRgEQAAEQAAEQAAEQAAEQMAWBBAA26IYYIRVBDhja1LOP2OhVfqhFwRAAARAAARAAARAAARAQB4BLIIljzU02Y0A5y8nJyZcxkun+e1mGuwBARAAARAAARAAARAAARAwngACYOOZQqIDCNCKzx97XEoRf+LqvQ4wFyaCAAiAAAiAAAiAAAiAAAgYQABDoA2ACBEOI8BZh4vzmSOenf+hwyyHuSAAAiAAAiAAAiAAAiAAAmEQQA9wGPCQ1XkEqOdXZZxfnlhe8qLzrIfFIAACIAACIAACIAACIAAC4RBAD3A49JDXcQRos9//SykvqXSc4TAYBEAABEAABEAABEAABEAgbALoAQ4bIQQ4hYDC+V3JSxc84BR7YScIgAAIgAAIgAAIgAAIgICxBNADbCxPSLMpAdru6L9J5SW32tQ8mAUCIAACIAACIAACIAACICCBAAJgCZChwloCFPw2Jp94wlya/0sjoPEBARAAARAAARAAARAAARCIVgIIgKO15KPEbwp+3+Ku+Av5X4t6osRluAkCIAACIAACIAACIAACIDAIAcwBHgQMDjufAGd8O4t1FSWXXbvD+d7AA6cSmOidJmXkgcKVeW0tNY86ldPhdpeWlioVq9YtEULMOfycjN80YuQ/bc013whn5Ej6lIKTtR7fu2bbOzrFk1hVVdVphp4077RmuoAzzJB9UCatzzC/raX2nwd/418QAAEQAAEQMJMAAmAz6UK2ZQQo+O3mLjEnueyGty0zAopBAARCJlBRue53glkW/DaljoqdF07wG7LjyAgCIAACIAACIGAqAQTApuKFcCsIUPArqDfsmqQl85ut0A+dIAAC4RFIy8idRz2/PwxPSmi56fnxbpwn9qLKykpMmwgNIXKBAAiAAAiAgK0JYA6wrYsHxoVCgCvslqSl858JJS/ygAAIWEsgPTtvshDMqu3Kdru4MquhoXKbtRSgHQRAAARAAARAwCwCCIDNIgu5lhCg3pv7kssX/NES5VAKAiAQFoG+ObN+7VnGRExYgkLL7OOK+7KWlurXQsuOXCAAAiAAAiAAAk4ggADYCaUEGwMiQPP1KpJjR303oMRIBAIgYCsC3sLCZNHjX0FGpVphmKIo32pvXlNjhW7oBAEQAAEQAAEQkEcAAbA81tBkKgH+fHJy/Nd52eWqqWogHARAwHACxcXFLm1Xz39o0auzDRcegEBqPPsdrfj8UABJkQQEQAAEQAAEQMDhBBAAO7wAYb5OgG/2uNks/vhcU7YBAWMQAAFzCWz6YPs9tOhVoblaBpbOOVtMwe9PBz6LoyAAAiAAAiAAApFGAKtAR1qJRps/nO9xKa6ZCc/e8Em0uQ5/QSASCKRn5i3QNO1GK3yhnt92Nx9zDbY7soI+dIIACIAACICANQTQA2wNd2g1gABVWn1uLi5NWnLDKwaIgwgQAAHJBNKzcnOF0P4mWe1n6jjfzOLi5jQ3l3VZoh9KQQAEQAAEQAAELCGAANgS7FBqBAEKgEsSyxdi0RojYEIGCEgm4PVOP01o4hna8kj6SCRaLX4vU9wz2+tXfirZbagDARAAARAAARCwmAACYIsLAOpDI0Dz9n6ZXF7ySGi5kQsEQMBKApMmzRylMXUFBb+jZNtBDWcqV5TLNzRVYeSIbPjQBwIgAAIgAAI2IIAA2AaFABOCI0AV2MdTli68PbhcSA0CIGAHAjk5pe4e//4yWvH5dIvs+W5bc/Vqi3RDLQiAAAiAAAiAgMUEpA89s9hfqHc6Ac7qk2NG3eB0N2A/CEQrgY7udX9lguVZ4j/n97a31N5niW4oBQEQAAEQAAEQsAUB9ADbohhgRCAEqOf3tRQeezHt9dsbSHqkAQEQsBeBtIy8G5kQC62wip4fy2ZdMOWHVuiGThAAARAAARAAAfsQQABsn7KAJUMQoEVrtsTwmCJeft3uIZLhFAiAgE0JpGfmz2BM3GOFeRT8vjAq2f2N0tJSzQr90AkCIAACIAACIGAfAgiA7VMWsGRQAnw/c/PZ8eXXbRo0CU6AAAjYlkBGRv5ZtNfv00IIl2wjKfj9KMblmlVVVdUpWzf0gQAIgAAIgAAI2I8AAmD7lQks6keAVnvWFMavTHm2pL3fYXwFARBwCIH0vLwxqtBWUO9vinSTOetgimtWY+Oaj6XrhkIQAAEQAAEQAAFbEkAAbMtigVGfE+Dse8nLSpZ9/htfQAAEHEOguLg4RnSIZ2nF5y/LN5prCleubG9a86J83dAIAiAAAiAAAiBgVwJYBdquJQO7GA1dvDelfMFfgQIEQMCZBN7fvPM+Cn6nWGE9PT9ubmuuoZ5nfEAABEAABEAABEDgCwLoAf6CBb7ZiQBnS5InlGDFVjuVCWwBgSAITMycdovGtOuDyGJYUs7Y39tbav5imEAIAgEQAAEQAAEQiBgCCIAjpigjxxHquWlNiRl9FS/lWLE1cooVnkQRgbSM3NlM43dZ4TI9PypPOiH1Jit0QycIgAAIgAAIgID9CSAAtn8ZRZmF/D1FiZ9De/12RZnjcBcEIoKA15t3Lg17fpIWvZL/fuH85RhX4tfLysrUiIAJJ0AABEAABEAABAwnIL+CYrgLEBhBBHYpzF2YtGTu1gjyCa6AQNQQyMoqOErlYjkTLFG20zTs+VMe457Z2Lhsn2zd0AcCIAACIAACIOAcAlgEyzllFdGW0rDFXkWIi5KWffONiHYUzoFAhBIoLCyM3b6zeym5d4J8F/l+7nbNbltX9YF83YNrdPn4Ho2z3w+ewpgzJ510Uq8xkiAFBEAABEAABCKfAALgyC9j23vIGRdk5HVJyxaus72xMBAEQGBAAtt3dT9EN3LGgCfNPSgUhV3d1rhmg7lqgpfe3Lx6J+X6cfA5g8uxoaUuuAxIDQIgAAIgAAJRTABDoKO48O3iuuDs5ylLF9CcQXxAAAScSIAWvfq5EOwqK2znCv9RW3PtEit0QycIgAAIgAAIgIDzCCAAdl6ZRZrFD41cuuDOSHMK/oBAtBCY6M2/VAjxSyv8pakTD7Y3195thW7oBAEQAAEQAAEQcCYBBMDOLLeIsJoqr1Up55+xMCKcgRMgEIUEMjJyz2dMe4xcpzWo5H44Z9UJcVO+LVcrtIEACIAACIAACDidAAJgp5egY+3nLyUnJhTz0ml+x7oAw0EgiglkZ08/lvYaWkbbHY2QjYHWDfhfSqLrsvr6Ujw/ZMOHPhAAARAAARBwOAEEwA4vQCeaTz2/H8e4lZn8iav3OtF+2AwC0U4gM7M4vtfvX0pDn4+TzYKeH1t5rHtWdXX1Htm6oQ8EQAAEQAAEQMD5BBAAO78MneUBZx0uzmeOeHb+h84yHNaCAAjoBCjo5X6x41Fa8XmibCI07LlbcSkX0nZH78nWDX0gAAIgAAIgAAKRQQDbIEVGOTrCC+q5URnnlyeWl7zoCINhJAiAwBEE0rPy76AguPiIE+YfoJhbmdfaWN1ivipoAAEQAAEQAAEQiFQC6AGO1JK1oV+03dG3U8pLKm1oGkwCARAIgEB6Zu6VQtNuCyCp8Um48vP2lpqnjRcMiSAAAiAAAiAAAtFEAAFwNJW2lb5y5XcjyxcsstIE6AYBEAidQEZGgZd6fh8OXULoOWno86MbWmqwXVroCJETBEAABEAABEDgAAEEwLgUTCdAQ5+fTimf/1PTFUEBCICAKQTSphSMU4WvXAgWZ4qCIYRS8Lv2pHGpJUMkwSkQAAEQAAEQAAEQCJiAZXOAf7mn+fl4xe0fIdzqCJdbjWMeEacoWjz9G6u4WTxTGP3L45mbe7ibxzDFFctdrkQlZkQMd43yMCVVMCG9MhYwWSTsI0DblaxPPmHctRQE0/w9fEAABJxGoKCgIGHXHv9yuoGPlm07PT/epDfAJWVlZb2ydUMfCIAACIAACIBAZBKwLABe1735/HCRJvGYPUe5E7Yf60rce6wrYf9xnkTf0TyJjXHFeVJ47IgExZPs5koqhV4p4epC/uAJcMbe4q64i/hfi3qCz40cIAACVhMoLS1VVlSufYLsGC/bFgp+d7gVz8zm5tU7ZeuGPhAAARAAARAAgcglYFkAbATSfaI3ZZ+vN+Ud364hxSW5Ynaf6Rmz+Rx36p6zYsaqJ7qSElKU2GPcTDmOepEpTsPHaAJUed0uFFaYsuTaHUbLhjwQAAE5BFasWvtb0nShHG39tfBeGvhzcXPj6rf7H8V3EAABEAABEAABEAiXgKMD4ECd36f2jmxXPxnZzj45JEscd+8/LWbU+2e7x+78qifV92VPctxoHn9UDFdOoOF+UcHmECAG/aDgt5u7xJyUJQvfMUgkxIAACEgmkJ6Rd60mtB9JVtunjp4h32xrrGmwQjd0ggAIgAAIgAAIRDaBqA7yuoV/xMs9286iP9Z/bw03476zYlNfmxJ7/Na0mGM8xyiJJ7o4Py6yLwVjvKOKq1C4ck3SkvnNxkiEFBAAAdkEvN78SarQLFm1XeH8jraWmn/L9hn6QAAEQAAEQAAEooNAVAfAgxWxnwnPgcD4LMZe6Ev2JXfiJ1meYzdNijuu93TPqNQRSszptCWIZzAZ0XqcK+yWpPL5z0Sr//AbBJxOIH1Kwclqr+9ZJliMbF9osbwn21pqS2XrhT4QAAEQAAEQAIHoIYAAOMCy3uLvOGaJ/81jlnS92ZcjTnF1nec++n+TRhy36/yYo+OP4vGn0okxAYqLyGS0Xck/kssX/DEinYNTIBAFBLyFhcnazp4V5OpY6e5y1pg6KvZ66XqhcEgCtEoGp8YQx30mT55xTI+qnq9pYjxtQnAUE2IkbeM1kt5TIwXjSbT4Rzcd20ff9ymM7xVcbCM/3+Au/nqMEvf6+vUVQy8u4jgi9jA4M7M4Xog95/oV/+mKppcFLVKqL1TK+xYr1cuIvosUxjh1MIguKqcu+k5/Yj95sIWuxw+ZpnzgYvxDl0t5s6mpaqs9PItOK2bPnj1i27aeczSunic0cSqVY999ppcnld1Iusf0J0gn3Wed9CDZR2X5IZF6R1HYO5rb/Vr7uqoPopNc+F5TJxzPyrrgFL/oPZdzZWzffcS0FLqnRpJ0/R46eG8lUjn0UEl0U2HQvaTfU2wnpfuQRlxRefAPNUXdNGv61Ldo4UstfMucIcGyBaAmeqc58JU6ZKGKc2LHvj4n/rQtGTHHUg+x62x6kEfNPsvUc1ORHDPqQl52uTokJZwEgSgjIOtZR1MP5tHQ4UdDxVtcXOza9MGO5fRSLQxVRsj5OH8nMS4ho75++faQZSCjKQTSvNOa6WWdYYrwA0KpEjafev7/GY6OSZPyT+jxiWIKnvJIzvl0HX8pHHn0TttC7/AGReHVbi6qm5pqsaZFkEAnTZo5yie6zxMqm0ALjk6gCvoECobOpLJxBSlq0ORUTh/RyReogv+84uKNo1Ni11ZWVmLniUGJhXdCD3g/3dZxgRDKhYxr6bSO7OnUOBF6XZfzzRQYN9C1sc7j8pSjQWPg8ikpKfFs3PjOWRoXtIOOfi/xCZRyPN1XyQPnCOUo309B4UaS/zwF1O2xHndVQ8PqQxdPCkWsTfMgADapYEa54rcXxZ/y+oy4E13HupPOpocztcZE6oc/n5ISP4U/PrczUj2EXyAQKgGnBMBpmbl/ohb8m0L1M9R81CO3i6rDmRsa694IVQbymUdgYsa0Fqqces3TwFioAbDXm/clVRFXco1dThVBPUg3rU5D1+km6sVawhT3wxuaql4xk4eTZadNKRgnfL4rqIJOf3plXfaHeho5q6HAeOWI2BGL0agWPn89+Hrx5bcvowYh/e8CCpBGhC/1SAlUZirJr6HnwZMj4sY9XV//SPeRqaLnSE7OvLiOrg9nMqZdQaNYZhKbeMneCyqTF6kBdKVLiCWtrXXPSdZvqjrTXhbDWS2rUjicHTLOuxXu98Yc+8rs+FN3j485apyHKafI0CtHB9/scbOMhGcXRGwrkRyO0BKpBGQ968LpAaZevhJ6yT1gQRn4XG5lRmtjTZ0Fuk1XmZ09/dhev2r6mggJ8SfkmlVZtGMPcB9X1f9jKsASqhTGmV6QhyvgvI0q6Q97lIQnGxuX0bDO6P5kZRUc5VPVywTXrqTGkmyiYVnd8tCSoO3UOHuWeoYX2f0Zow9npZX3Gw+137hfNPz1VxtaaiuDkZiTU5y4v3snvRvE98k+qQvBUuC1hYbr3uNxJdwXTfdYTk6pu7OnIV9o7ErqGb/I2B7eYEr/yLRUJi/Qjb3I40p8IhLKBHOAjyxjw4/4NeFu7P7oPPrrkz3OnfTB7BGnvpsbe1LSKFfMefQCD334iOHWBiGQ8z0uNy9KWFyC4DcIbEgKAnYi4M3Om6ap2t+p4ir9QxWcBXavmIYDxefiscIvMsOREUjemJiPDRtSeri+vhl8Flwbh9uh/548uXBsl6/nFzS3dz5dr7EDpZFyTIh0jf56RcedaZnT7h6V5PlLVVVV1I2Aysgo8KrMf7tP8xdQRd1lxTNk6PIWMVS/ukL1iyvSvLn/o6rWLza0Vi8eOo91Z4mhac8KhQe+rkNfz2P35h93dm+/ifiNsoKIPoWBePyuV+34cXpm3q2tTdWLKACzyZPIeCKZmTNG+0Tvjzu61urrYKTqGuzmLJUJTWVg9/Wo+/6Q5s37a0J80u/r68t3G09DjkRnBl5y2Jim5QP/vnH/2PvC1Mu2LTn/yq3Lt67qeq++R1M/W13LNK3GCqYHkY/mRV2atLjkVWMlQxoIgIAsAl7v9NM0VTxDlRzpjaGcKb9tb639lyxfoSc0AlTltEU9jCrBF3X7el6hYbXfoT/rgt9+GKlCOJp6au7cudf3HlUIf6AHDv1OR+zXzMyCM9Mychf7ha+FGBTSn2kNMEZBpMv4bMbUZ2hEQ3ta5vQ8o+RGmpy0jPz8ju7N+n1WalXw25+pfo9pmnY/3f/r07KnfaX/uUj4rs+ppsaZn/i03nfoSfsj8qkv+LW1b4IlCqb9tLN7z7u67frCdra2dxDjEAAPAkbW4a3a/qPv3tuWM3PbM6d/d1fNmxt6P63XmPhUlv5Q9VAAXJJYvrAm1PzIBwIgYC2BnJyLRmpM1Re9Gi3fEv5MW0v1z+TrhcZgCfT1AAebycD0+nWa7s19jCrBS+haPcpA0caJEmwsVQjv7uze/FJaVu4U4wTbS1JmZu5xFPg+6Bf+V6gsLrGXdYFZQ605E4XmryY//pWfnx/Ba7MExuNgKn3BMv0+E0JdQ8Gv7abp0fWWxVTWPjEr95qDNjv5X32oMwX1Cz7Z1vkWNc78lnzRV2521EdvINFt92s7XtBHgzjKeDIWAbCNSuy13u2n/2TX2pwZW5456pd7mp/fpO5eTzNpOmxkYp8pNKfml8nlJY/YzS7YAwIgEBiBvnlG3XvK6OV1RmA5DEzFWatHGTM3koezGUgrqkVlZFxwUmfX3lZqFHZEpZcq6acJVdSnZUz7uz5/MlIKT18hnnpO7/AL8Rb5eAP92b7Hdzj25MO8PfvUl9EbTEu8Z+Sf1e3f32b3+4wCrnimisfo/vqz/g4broztep5453R2rXtV79mmxoZj7WpnoHbp9QiaCtFIo2Du1BdMCzSf1ekQAFtdAgPop5ZkZV335vNv2L560qwti5UHOzY27lS7N1CFUR0gudRDZMPjKUsX3i5VKZSBAAgYSqCze91fqDKRb6jQQIRx/r6Lts9obi7rCiQ50lhPwKoh0LTC87l+0dNElSvaZsVRH0731rc7une8kp49faKjLB/AWH2Bq/c271hDPae/6AtABkjj1EPk0zihqVVpGXk3OtWHcO32eqcVqULTV3o/NVxZsvLTdXgjvcOe0BtmZOk0Ss/EzGm3qEyrduBzbUgEeqOYPiz6hY1vr9JH7QyZ2CYnEQDbpCAGM6Nb+Ec83fl69uXbl068cuuybU29H9VTWmv2yuS8jvb6vWEwW3EcBEDA/gTSM3K/Sy+rb8m2lBa82stdYmZra80W2bqhL3QCVgyBTs/Ky1SZWEdWHxO65RbnFOJEofobqFfkaostCVm9Xg60wNXztBzPtJCF2D6jUITQ/qz3KpaWlkZVnVhf/V9lfDkFYwbuJSunwOkddvmmD7Y7Jgj2FhYm07D7Z5nGfq8Hi3IoyddC11Iujdpp1EfvyNcenMaoutmDQ2O/1Pp84V/sWp9TtG1x0uOdrzb0MPUNWVZSz+9rKTzmEl52ea8sndADAiBgLAFvVi6t1sruNVbq8NJo2oRfcbHi9sY6LJo3PC5bpZDdA6xXnGho4FIKuhw/P5N6quKoV+RxWijmD04LrvSGMlodfi1V1qVuf2PVxa/3KlasWktzYKnJJwo+6Zm5V9K+1vfRfebYOIDK7OubNm//h92La2JWwVe1nT3tdG1dbHdbjbCPguCz9dE7aZPyv2yEPLNkOPbCNwuIE+T2av7YRztemTxzyzNn3L6n4cVP/J0tZg6Ppp6bLTE8poiXX+fY5c6dUK6wEQTMJKDP81JV9l8rWp85V77T2lRbZaZ/kO18AtnZc5JU1rOchmOOdb43X3hAFcIfrqhc97QT5i3qAaC+QBRt8/QX8sAx8/m+oB36NwqorqJeb+kNhKFbHFpOWnxpFpXzY04Ofg96Tg26JXS9zj/4227/6kPMmepvoWeA06ZyhIvyGOFXV9NUli+FK8is/AiAzSIrSW5j98fnXbNjRcbcHRWf6CtIU9vlHmNV8/10486KL79uk7FyIQ0EQEAWgfS8vDF+pi23pFeNs3vammsekOUr9BhLQOYQaNrz81EKQr5qrAd2kSYu6+ha95Tdg2A9AKTgaJ5dqMm2Q2jiJtrb+aey9crSlz5p2nga8l1G95ljF5E6nBX58jdaoTz98ONW//5sKgcvo/dugtW2WKKf5pVrXFTadUFABMCWXBXGK/3It+94fQXpOVuedZd1vb7Ox7R3wtVCwxY1hfErRy5buCFcWcgPAiBgDQF9VUbRqS22aGuLpbMumHqLNZ5DqxEEZA2BpjmYl1DgFeFDBMVltHjPk3YNgvU9PfUA0IjrxskyhMZ/7c3Oi7h5z/p+rZqfP0UBY4TtVy1i/Br7Fy2KFWOX607fK5tWhNcbnUfYxSYr7KBn+oSOrp1/t0L3cDoRAA9HyGHnu4Qv4YG9G6cUbin78h/2tbd1Cf9rIbvA2feSl5UsCzk/MoIACFhO4MWN79xPFZ6p0g3h/Pljjkr8Bs191KTrhkJHEdA4S6Rhz392lNEhGksVwuKOroaHQsxuWjYaRjqPRnvp+5HiQ/NiNVU8npk5w4I90s3D7xM77qGG0LPM02CdZLp2z6b5wD+2zoIvNOv7ZfuEfzXZNOaLo9H8TZurzzm3GwEEwHYrEePs4av3v5s+e+vis+7Z91xrV5ALZtGc4ntTyhf+1ThzIAkEQEA2AVqB9gca066XrZdWkfkw1uWavXz58v2ydUOfsQRkDIGmXuYf0ly+44213M7StLlpmbk/tIuFffMUmXjQLvbYwQ5qqDjOL3oX2cEWI2ygqd3foeB3oRGy7CpDcP6zrKzcU6y0T98CiPbLXkWsT7DSDrvp1jR2X9qUgnF2sgsBsJ1KwyRbVu5/2zt7yzOn/3Xfcy29THtzWDWcLUmeUGKbl/Ow9iIBCIDAEQT6Fjph4vdHnDD7AGcd3MNmNTau+dhsVZBvPgEZQ6D1YMN8T2ymQbC70jPzZ1htlb7qNm2FQ4vjRc6cUKOYEpNL0zKn5xklz0o5dI+lWalfim4hYn0a+7kUXYMo6eze+zhdNxG6jsEgTgd0mFb17/XfFVBSSYkQAEsCbQM1fOn+tzOKtpSd9ve9LzT3CvXtgWyint/WlJjRV/FSjmGLAwHCMRBwAIHMzPxzNKE9JXuVT301ekVxXdG2vm6jAzDBRBCwjAAFJC4h1KdomO2plhlBilXWS9vIROkiPYGA1/x3O20Lq0Dcitw04mqrtt/xZuVdRvf1rMhlG55nxObKtKw82zTEIAAOrzydmJsv6Xozc+bWZ798f8fGJp/Q3u3nxLuKEj+H9vrt6ncMX0EABBxEICur4Ci6r/WtZBJlm01Dn29ua6qukK0X+swjIGMItHnW21sy9RSN8mu9j1sVYNHCY5dTpbTQ3pSstY6G5p9XsWrdXGutgPZACfSNZPBr0lfx9hYWJquaiIp1DAItiwHScaaKPw5w3JJDCIAtwW69UkELPD/T+XpW0dbFJz20f2MjDY1+UWGeoqQlc7dabx0sAAEQCIVAYWEhDQHzL6H5RyeGkj+sPJz/ra2lFusGhAXRfpllDIG2n9fyLKIAK2PlqobvydP4mab8/PwUChb+JFuvE/VRGf3IiXZHq810XX9D31Ncpv/azu476b17rEydTtRFC4NN1reHsoPtEbMPmB1gOtEGPRB+quONiU93vTm9rbHmDSf6AJtBAARoECMTfPuunn9Sj06WdB6crzx53JjvbWiRrhkKTSbQ1wNMEQA+5hGg9/CvaSj0subm1QNOTTJD854OTV/x+RgzZAcuk9MC4Ox1xsXLlGcHfd+tMaVTEWyk4CKVjul/Z9Iz7bTAZZqQklZO1ucCtzevqTFBOkQaTkCM8Gmdl5NYKaut63sQ09zjb+lvYSs/NAVpC+l/nv4+IlN2M8720PdYsiqVfqfS1qbHUuPARLLT0u2iaKu175BdzfRn6QcBsKX4baFcKJxdR8Fvgy2sgREgAAKhEriRKooTQs0ccj7OX0qMG/P1srIyNWQZyAgCUUyAKqXxfuHTK+tTZWA4UGFfIEPX4TqoEr6LMf4MV9h/Ria6W6uqqjoPT3P4b331WN6r5lIjn75X9Gw6T7Gy3I/QVL3SjgBYLvaQtdEaGNdRZtMDYLoeeXpGHq0WLiwYUdvXgFQvFPGEh/HVzc21Hw0HbPbs2SO2bt2frTFRQA1P36Rnz6jh8hh9nnRe5vXmfb+1tUYP2C37IAC2DL09FHOF/6ituZYWy8EHBEDAyQQsCX4Z+4THuGfV15d1OJkdbI8sAgd6Qj6mXo991IPdwanHg3pBkrjgI+nfk63uARmINgV3U2hO7iXtLXXPDnTeyGN+2nZKeoWds22cKb9OHRXzQGVlZU8w/rSvq/qA0j+q/1HF+VyVidvI/kvpt7RAmAL32fr6Ck1NVZgmxngnBU+f0P30Md1P3XR/HUVbEB1FQ4DHUpl46M/6j2DZ2dnTjzV7N4L0rPwZdO+Ol+sw1yjafoLFum9vW1f1XjC6D2xNuIbyrKF5y79Sd/V+hwvxffJhTDBywksrYlRF6PPq/xCenPByIwAOj5+jc1Ml4Z/tzbV3O9oJGA8CIGARAb7fxcTs1s8qpxbZALUgwHwUB63niljDuVI/Iibptfr68t2DcSkuLnZt3rz7y0JRJ1JPRAE1HM2gtBYPBf7MWsH4r8m+pWaOpkjLKTpadHVdNBgfM45TXePBGFfiDxobl+0LVz71Gr1EMoq9WfkXapqqbzkjZa4nXSeuXuGbRbofDtcHp+WnVoZPGefLFSHK2ei49a2VlXsH8kFfzG1lVYOXados6hidKT8wPNSqXlUtoCOPHHrU4F9C0NBneR/O+BtCUa5sa65+IVytB8rxzsmTZ/yru9e3mMorM1yZAecX7EJKiwA4YGBIaBgBeqCtToibQjdurWEyIQgEQCB6CCgKv6q1ufa56PEYntqKAGdvU2D1QJw79tGGhsptgdp2ILh8i9Lrf0/plfaK1Q0FQtMWUiBNw2utGMp4wHqaa7rpgx3X0K9HDhwx/B/e3f1N6rWT00vHeQ9V2L/Z3lLzhNGOtDZVL/VOzsvQesVyqrh/2Wj5A8rT2Bw6HjUBMPV6r2UK/4U+RY7uNbpshv7QvaRRCn1up/73s749lIX/T9RI8dWhc5p2Vm/cesQs6frQfNrbdqZZ8g+XS2VQlhA35nqjR1w1NKz+hBrecujZ8wA19Mw7XK8pvwXPnDy5cGwwz26j7bBgzLrRLkBe0ARozl6MO6m4vr7UH3ReZAABEAABIkA1neMAAgRkE6BK4EcK5/NPHpd6pj6CKdwKlF5pb2+uWbWhte4ij6KcR/IrZfvUXx9FGaVUGTVlkRo92Kf7tqS/PhO/+6ihvdiM4Pegza0NNf8TblFEgVrYPcsHZQ79L5+emVkcP3SaCDjL2et0H8yh4fg57U216+j7sMHvQF7ri4adNC6V7inlJioj6fVNCuby6c+8YfI+db4+MmAg340/xp+aecGUK4wOfg/aSQ2DvW3NNdfLe/4Jpbu3Rx9RYdkHAbBl6K1RTBf3Rx7OiowYimSNB9AKAiBgBwJcaH/KyMjPsYMtsCE6CND760HqATmTttv6pxnDhJubq19ub6ktotENl1DP5Q5LqNIWZu9/uP0KM3SvXN1QRPM0TzBD9uEyqaxKiOXyw48b/XtDY90biqJcb7TcgeWJEX62O33gc5FxlNaF+XNi3NRzjCo7/T6lRpC/0PVAqzLzXsmUUrOz80wZHZCTU+qmUSM3yPGH1yXGT5l7oIfdNJVURsLNPVdTY8Um05T0E0xTPnL6/ZT+FQGwdOTWKdRbSblbzAxkpTjrrIRmEAABJxCgYW1uv1DLMjIuOMkJ9sJGBxOgobR6UEqV8hKzekD606GFIZfExXjOoa4jSzb2En1bqvS3yJjv1Fu1wBhJQ0uhivR/qKweGTqVcWdbm2qe0XUaJ3EoSWraUGedeo74qUxRvkOjKr5nxuhA/Z6iNSMult0T7NPMWaBqf886mi5h/toBVC47PQq7xowyGehapa3YdipCkTNKhAtL7yUEwANdARF4TH/ocO4qbltftzEC3YNLIAAC1hBI9bPepQUFBQnWqIdWswnQ4MeQhj8aZRe9u7pcCpujV6CNkhmIHH1eHE0Voq1CWGMg6Y1MQ8Az0rKmn2ekTF0WDaG8MDE+caybu87mLj6VMddl1Hu6kCrZt+k9f8Sa5uryKvr9AgX/H9Dv7qBtoFW3E+ISvht0vjAzKIL/NkwRgWUXgvZRjbCP3sAkxJwNzTV/N9Oz1ta6lXRt32OmjiNkc8Xw+0jXoT+PEuNTk7jHdYpH4V7F5ZqlcGUe3Ue30P3zO4UpD9O/y2gkSTM9Q/T9vfWF+YJ/lgp+m+xOK1pobg3d/xt0P039CHZGdvacJFN1DCEcq0APASeyTvFv06pxqyPLJ3gDAiBgOQEhzt211/co9S4V0ws/+Be85Q7AgKEI0Aw62uVkqBRmnuP7ab/Y2a1NtbVmahlMtj5VKCen+IKO7u2VxGDSYOlMOa769dVlDe2xPTCEcjvJ1f9eC8Ru8j+xu3tfqqr4xgpNpCqctroRSqro+5el0n0/lu57OsZSaWucsVRxvq++frkuX+pHXx16YkbuShriXWSqYsEt7bUywzcqs+/qwakZsg+X6eGppT6241Iqp1MOP2fGbxqmfK4ZcnWZB0aj6FsAvhuIDn3YdCdrS3X39I7VFJGqqdpYwRW6d0QqbUU0lp60qUxwOqb/q//m+08aN/qf7a2BSDc2jWCuuxhTnzFW6uHShNKrdZ1PR9cefkbGbwTAMihbrIMryq9okY8HLTYD6kEABCKUAA2HvpT2Q6S9OdkvI9RFuCWdAAW/LlbYRovwSFfdT6FeyaUgsLCzawf1XonJ/U6Z+pXmx11Fen8gY8j3UI70q+RvGiqdHc5RW81jVEamBsAk/+TCwsLYYPcytgOfgWygxot/0XB1afXD5uayLq932o0qYxUD2WP0MQruTzRaZqjyDgxj/pTy638BfTa0BJTM8EQnnzCqfNPmHXvpek82XHg/gZxpZ9JPSwJgDIHuVxCR+JUebv9pa6q+PRJ9g08gAAL2IUAt7aXpmXlS9xe1j/eRa4lVQ6AVzn6ir0BrB7J6EJgQn3AJ9dAEvN1S+HaLhI6uXTPClxNFEuJiZVSk+Z49PcdHAlVqMNiYEHfCt2X70tJSW0mB6Xsy9NLglYgoKxms+uvQFy+jnuj1/Y+Z8l1oUhblG8h2BMADUYmUY3Txpo6KnYdhiZFSoPADBGxNgGtCezwte9pXbG0ljLM/AXp3tTbX/M1OhurDeqnS/h25Ngl931l8AiTQXr/yUwrq3ggwecjJNE0ZF3JmG2VU3Pzm+vpHgp/nHaYPfXVSRXkkTDGBZk/Ve+wDTYx0XxBQGDe9QYlGuiAA/gI5vhlBgF4Cb3p4zIWWDtNpqf4Sq6/4Ps1lQEOLEYUKGSAwBAF6WT1OFQsaWWbhR7BEWm5vWWbmjNEWWgHVBhLomwNsoLzhRNHCS10u4db3o6TOG3t9aF/U/9IiUeWyrKLJ1zNpT2BJ+4zK8spcPdRI0WauBtoDnauWVdqN8o3qiOtaG2vqjJIXrBwPF49SHin3+I5O9dhg7UN6xqhOYfq9RJeAZY1JCEwi8SqnYVoeFyvSlzO3zL0NG0aw7q7lTGh/ZPUrqpgeDOMDAiBgHgHOa6jCfIt5CgKTTHOGvuwXvf9FxT0wXnZPJX0ItFBua21d85ZdufD4uG9RkL5Lhn10L43Z9NGObBm6IkUHNdhsNdsXjTHH12eo97fUbE5DyW9qqn2fgvCAFmIbSk5A5zSfqfNYA7LBgYmER5h+L9GiX0dbhQYBsFXkTdJLL+Zul8s1hx4u75ikYnixeo/vvk+fpLa9g6sl5rHu7hfZ2pW5w2dGChAAgVAJtLXU3UvPANrKxNoPLYqVt+mD7fdYawW0G0FAZg8w9fp+lBA/+c9G2G2WDH2YLa2C/Buz5B8ul1Zennn4MfweggAXO4Y4a8wpwUcYI8giKZy1Wtn7+7nXnD3/+XcTvyh+T5yJ4iNXdC8z/V6i90u8VQARAFtF3hy9tCOB6+rWxmqL1o074NTaFffSsIYLD3FRiKOZUNewuuWlGBJ9CBn8AAFDCbh56nwKJF4wVGgIwigIvjHNm3tdCFmRxUYEZPYA03jIBw+slGojAkeaEuuJoz0+WdeRZ4w/wgXPMF5qBEvUzK+0U/3G0QEwXbtL7XAF0IglKQEwDVq3LMiyA+dQbRg//pSdoeYNOJ+w7l5CABxwKdk/IWfKLRtaqxdbaml9xS3U83vjgDYImlLA2O1sbUU1q6uwbNjDgLbhIAhECAF9m4lYt6Kvxix9L87DEVLr7n3e7HxU4A8Hg99HEKBKuT/W5ZK2HcsRBgRxYP36ChoCzf8TRJaQk1KjwNcwnSAIfFzpDCJ1iEm5owMql+CrQ3Tc0GyCu6UEwH4EwCGV26JFi3z0nOsNKXPAmay7lxAAB1xI9k7IFf7n9taaP1pqZd1KqnRrdw1rgxDTKN2LrG5F/rBpkQAEQCBoAuvXV292c1exHlQEndnIDELEan51SWZm7nFGioWsiCSwtLFxzceO8Uzh98mxVSRs3rwTK6vLgR2QFlpoy7EBMI0O2trcXGP5CCEdtBLrljRVT3gCKlgksoKAZfcSAmArittgnfRAW3HS8WN+YLDY4MStW57OuPYU9f4Gek19iXGxmhbIujU4RUgNAiAQCIGWlup6WmTk+4GkNTMN9WAd7RdsSU7OPMzDMhO002Vzt6SA0hhQ7U017RQIbTBG2tBSBBfpQ6fAWZkEaFh6oPUcmWYFqqua6oxSVl8e1qB4tnfYNEgQ4QSs2yXGHeFkI949egE/NyrZfYW+abVlzq5dfTLTemnFZxFcBbcvWBa/oSD4HBYz+nqWlSVlTpVlnKAYBCQTaGup/WtaxrSv0XzcayWrPkQdLU6Q1tm9WR/ees0hJ/DD9gT6FsEyvbrM98yckV3X3rzG9jwONVChYdDaxEOPGf9LE0LX8U/jJcuRWFBQkLBvHz9G09SjhaKNpTm08bSSchzXlDjOtVitLyATe2nblX20L+g+l1D2CaHtI+u2tLbWbJFjZZRo4VxSr+vwPFtWrtyXlpFHl4J1QdDwVtorRU5OqdvnazxKVeleorV1NK4kURwQxziLo/d8LHVCeeh26qQOpr1C0L3E9HtJ3edy8d0xMVPed8IaC7KIIwCWRdoMPZxvZnFxs6qqVkqY8zKIAw0rRjG1dyXddEcNkmL4w0JcwXp2nsaall/IsmZ/NHwGpAABEAiUQELciQs7u97/CsUwplfUh7KJXtZXp2Xmbmxvrr17qHQ4F5UEWktLS6ki7KwPd7EmIaHpmaYynOoEMulTCk7WerTzOVPPpgo5PXP42RTcnLxzjy/xc/v7lbJgGrWb05m+/1FTAlUk6AfN2/giES2kR72E4i2S9abC2Zsk9w2uuTbYeausz3214RcibJsGBb0neqI3V2/oSLEhKktNys6ek9SrdaVzoZ5Nd8PZ1Gf/Fbr2z+joWksNSPTt4Ed8dtf03ToHjn12T+k/9HvpsweUqgrm617rT8vIfY/exXQf8TdJyFsu5nopLu645+rrH+k+KDJa/kUA7NiS5nu4SxT1bclglQ+vvhrDtr67hNSfGb4J4musl29gDRUXsckzW8OXBwkgAAI6Af3F5s0pvFjr7nmOXnyhN1QZgVOwu9Iy815pb65ZZYQ4yDCfgL4KtB6WmPmhwKbZTPlmyT7xuNHPvffBjh4iFGuWDl0u8T/RTPmhyp40Kf+EXlUU0nNlCjGYovX4jj9gb5/RB/4Xqvi+fHT5JdOXr5Gsr2n6hdh3MfoZBcY7KAxYR3pXKfFxK1vrKz8MS1GUZFaYhL1dg2BJK0HvpSKN+gA4M7M43i925NP1nkPP3Cm9ascEuq9cfZf7wcv+4I8g+PZPSg9yivnEaXTsNLpvZuri/PRfR9f7vokZ057nXKmixrZKfScZ2wyT7++Awd8RABsMVJI4n+Jil7Q11r0qSd/Aara+9zCdmDrwyRCO6lsl+dlaVl8xn+XMfDwECcgCAiAwAAG9cpienXeZ8IsaOm3ZgiD6C51evE+lT8rztq2veXMAU3EoGglwxZEBME096qUeleeoIpllarEJfgLdO1QntX7uph709vhEseBacbdP9Zrq9xDCKVAYQ8HwxZTkYrWrW9BUj3VUeV9Ex9xhxglDaHX+KcFcW23mhbULNVoI47Ogd3shdegW+8T2WXTt9o2U6Lt+TW92PMRxD+n20rQDL+m+jRqpN0/MyH2cx8X9TXRFbsewkyfyH1J60fRD4cr8tqbaWkt9rltxF7UkXWW8DdSSLrTHWP3y31NFGden8YAhMUoJtDXWNNBWad+zgfsjNb+21FtYqPfs4AMCIjmBtTgWg2BN5tsuYiZNKjjGfD2Da0jLnJ5Hwf6ybp/2Hg1dvluvMA+eWvoZTvHCVE1jT5BtjlpMTTYpNxM7ZeuEvkMJ0Iis42k60G+px/dDum4XU+PWFQeD30NTWvRLiBOo/v0z1t31HtXzLWswN9t7BBhmEzZYPrUA39bWUvOowWKDE1e/fD7dFD8OLlOQqQW7hXqCl7GNqxOCzInkIAACgxCgrdL+QcMGHxrktLzDgp2p7ux+kuZ94h0kj3pImvoWwQopZ2CZaKXyN6urq/cEltp+qWgtRynBe6+mnmSF996svMuod/VlofmrqaI+m979tr5nKaCIt4KTU3T6FfWLCdZOMTpC7MzMnHEqzXl+Uuvufk9o4id0P422s2t0L8WRfV/MN7azsSHYZusHWQj+RHgW5bH2ltpfW+pkfcV0uh/+IccGMZPt8tWyurpUOfqgBQQin8DYUXH/R680O8yzn1mxet1vIp+4sz3U5wCb6gEXn5oq32ThLjf7yGQVfeJp5Je++I20T3pWXib1+DaqqlZGFeGvSlMMRSAQYQQo8B1NPb5/8mm9/6MGpCvpfsL0UxuUMQJgGxRCYCbwuvPHn3JDYGlNSrW24hy6eZ+hoRHybl6h73/YsZ41VpxoklcQCwJRRaCysrIn1uW+hJp1LQ889Fbwid68K6KqAODsIQRoauuuQw447Aft0StlSCnNzxshA42+ZVGad9oDmqo1UQ+VuXObZTgEHSBgIYH0zNxiv/C9Re+6m8gMj4WmQPVhBBAAHwbEjj9piNj/EuOTL1m0aJHPMvvWVx1Lc3MrKPi1Yt7eGcwnmtm6ynMt8x+KQSCCCDQ2rvmYKfxSGs3Ra7VbtA/owxMz8ydYbQf0W0OA9n6VEkCa5d0I9wg59gtm+nSgjIwC7869vhepy7/ELF6QCwLRQEBf4yLdm/uYpon/2n2oczSUx0A+IgAeiIqNjnr9lf0AADHbSURBVOm9NB4XK6qvL99tmVl1dYnM37OCBsKNs8wGIY5hqrqOrVs51TIboBgEIogA7cfbpCj8Rqtd0ufscU1dmpVVYO0WTVaDiFL9NMJaTgBpEt+xY+P0Hmxzh4n3KeCm9gBPzJx2vcp868mTU01CBbEgEBUE0iblf1nb2dNOO/ReExUOO9RJBMC2Lji+n7vds5uaat+3zEx92xLe+TS9FG3QQyNSmKqtZmtXXGIZDygGgQgi0NZc8wC5o/9Z+qHoYVyv5ltcUlKCIWKWloR85bS5j6OHQNNWSCqNpNhrOjkhTAuAacjzHUxjD2FuoumlCAURTiAtKy+N+bVmatg7PcJddbx7CIBtW4Rcoz3trmhrXLPBUhPXrfgbDXsustSGQ5Tr2ySJMla/4luHHMYPEACBkAicfELqjbS6vIStXIYxT7BJL7z09t+HSYXTkgmYvgq0YNaNbjKKJZfhgzBldWPa7/Mv1AD1C6NQQA4IRCsBWugqS6iinoY8YzSTAy4CBMA2LSRFYTfRis/LLTWvfsWt1Cq80FIbBlJO+05QEPwP2ibploFO4xgIgEDgBKgHq5fFxV3KOP848FzmpKSKw/yJmXn/Z450SA2FgOmrQLNI2LbGvN7Zz8uMc8PXAJmYkXcrvUu/+7kOfAEBEAiJgHdy3tl0L62g2RCmjdQIyTBkGpQAAuBB0Vh3QmHKH9qaa/9mnQWkuX5FMf3/15baMJxyof2ehkObux/xcDbgPAhEAIH2+pWfupn7EgqCe6x2hwvtTxkZ+TlW2wH9cgjQImi23gszEAq0VseoQNKFk4YWw9wfTv7D86ZnTptLC1tiG7LDweA3CARJYPLkGcdovdoqmkJg+nMgSNOQfAgCCICHgGPFKRqK+GxR4eSfWKH7c51rV+hbHzxGrVn0Xrf5RxN3UbB+q82thHkgYHsCLS1VrQrnlve+6vMQ/UIty8i44CTbQ4OBYRPQGHd0AKyv9ipn7qwwLACemD3tDE3j94VdeBAAAlFOgEYt8a5e3yP6OhZRjsJx7iMAtlORcdbq5mOuLi0t1Swzq27VqUwTyyj4jbPMhmAVC/EbVlfx82CzIT0IgMChBGhRrIeo1csO83BTVdFbru9JeqiF+BVpBOh6c3QALDrVMVLKhBsTAOsLzXE/ewJDNaWUGpREOAFa9Ir29xUFEe5mRLqHANgmxUrDm96N98TNbm4u67LMpLq6VMZ9laRfzgvdUEe1X1FPMBbyMJQphEUjgQnjT7uZnkcNVvtOq2iO37nH/4jewm61LdBvHgHqOXH0sEHe45MSwHOuGNID/OJLb/+ImH/NvBKFZBCIDgLpUwpOph1S7ooObyPPSwTANihTGva8U7hFUUND5TbLzKmri6PtjpY6eg9AIe5gdctLLWMIxSAQAQQWLVrk87jcl1HU+aH17ojL0jNyMbrDwoIwexVocs2BDa5fFIjKuZwVX1W25wutoX2bPLlwLDUs/Ti03MgFAiDQn4Do9f+aRkvG9j+G784h4HaOqRFqKS06w138ovbG2jcs81AIha2t0Of86nN/nf65na1d7mJTZ9/mdEdgPwhYRaCpqWprevb0i5nqb6D5jZZOh6Deqju8WfkvtTZVL7WKB/SaR4AzcZY+LFdveDFPi3mSqaHoa3SNmv5R3drmcJV0+7p/TvdzUrhywsvPe4nZa4LxjVwRL1MDyxYXU/YyLvbS/ql7mdvlERpLoZEfI2mRrhSqnaRQw/zRtNfyOZRvPB2X0+AQnpPIHeEEJmbmTxCaeqXlbnK+me6Ll+g5+hLjyru0feoeGjS1T7+fuKr1ChfX7x+6n/T7iKdwLkZRI9iZ9MwaTyO9TqP7yWW5DxYZgADYIvAH1AqFs+vaGmusHW64tuJuCn71VZ8j46Oxn9Oc4E42bSaGpkRGicILCwjoe5CnZ+QtFEx7xAL1/VVyTVMfT8ueltneWPdq/xP47nwCVDGLf+GVd84jT9qd6Y3IlmG3R0sNKwDOyZmd2tHVuZDmK8ow9xAdVCnfxYWyhLvE0+O/empdOI0daTlFRyu93edqgmcIoRVRpT6NfMJoxkOI44fpBDRNX3yVYk/ZH66vEbRWUfjTse6YZ8MZOZqZWRyvunZ/Rfj955MnBXQvTafgOFm2R1bpQwBsFXnSq3DlJ7TozFMWmsAoUFxIraw3W2qDKcq135Jv2ykI/qcp4iEUBKKAQFtLzaNpGdPOpyDlRivd7eu1UvnSzMwZ6c3Nq3daaQt0m0BAY5kk1XEBsD4/PS0jN8MEIoeK5GxbuOuD7O/eP5cCxZhDBZv7i6Z3baG/288755SHDwa9rU21YSnVt2wjAfpfFf39Mjt7+rG9mv9aiutL6DlxEh3DBwRMJZCVVXBUr+q70FQlRwjnmsL4Izw+5vbW+kpDpicdeKZsIFX636Li4uKY9zbvms2ZOp+ayWYcYUKEHUCrmUUFSi+Ff1Ll8vcWqf9M7drlRYxp1u43bCoA7X7aJ/gSU1VAOAhEOIGEuKk/oNbhesvdFOIUv+j9L72ko3bIlhVlwKlLwHy9miOn36RPyj2b2Iw0mw+Vwfvh6tCYNj9cGcHkV5jyh4S4MadSI/8DB4PfYPIHmraxcc3H7c11v51w7mmn0zZu36J8uwPNi3QgEAoBv6bOo3yeUPKGlIfzNo+inNfWWvNNo4LfgewoKyvr3dBavbi9te4C7lLSKU5pGihdpBxDAGxJSfKqhLgp+oPaus/alROoWvM0GRDJlUkX09iTbO3KXOtAQzMIOJtAfX2pPzEusZjRXCOrPaEenrxNH+74o9V2RJN+CYtg0auI6z3Azvv4mZThz9QAFVYAnJGRez5BPlMOYH2Or3INVdZ/VF9f1iFHJ3Vf0Rzytpba++M8rvE0MrVXll7oiT4CNPLjG/K85uUePianubn6ZXk6aThOU037SePGTKEgeLlMvTJ1IQCWSVvXxflLse7Ey/RKpWzVn+tbu3ocE+oKeiEmfn4sYr/QCn1CLWcNK7DtQ8SWMRwzm0B9/fLtNF/mYprLZ902bQecFJq4Kc2be53ZPkO+RAJCnJA+Ke90iRoNUSU4lzQMkr8YjsE0aXB6OPmDyCsUl3JJe2vNv4PIY2jS9eur9YY66+pXhnoDYXYjoA9/pkEx58qwi4LP/84qnHJpuNMfQrWVeoRVGv4TVuNbqLpl5EMALIPyAR10MX/kioud2di4bJ9EtYeqalmZzIRvJQW/xx56IoJ/6ateqqySNVQ4roIVwaUC1xxGoKWl9nlauUDqMMrBEFGv5H3e7Hzz514OZkAUHZczBJom4/i1BU7CemAP0Atk2Ex7AIc1P5oq7PlS7GT8z21N1RUydEEHCFhBwC/8eaSXm66bRlylJColpaWl1H6FjxkEEACbQXUAmdRzso+7xUwzx+8PoPbQQ3V1btatLaYVn7966Iko+CXEWKZqa1jdyuOjwFu4CAKmEGhvqXmCXv33mCI8GKG096LmV5dkZuYeF0w2pLUvAdqSY15Ozrw4+1p4qGW0BygF7JJWHx4h9EVqQvrk5JTS4A02KaTMQWSiOs6m1NGxPwkiC5KCgOMI0AikHBlGu4T4VnV1ddh7f8uw1ak6EABLKDl6Mfhpf67L29bXbZSgbnAVvGMRBb9SWoIHN8LCM4KdwLhWydavt3gfRAsZQDUIhEng5HGpP6JnWk2YYsLOTkOzjvYLtsRJQVPYTkewAJpXN7qze/MVTnCxsLAwlnpVr5dhK3U1vddWU7MjVF1dXY0n09x50xsWaB73I5WVlT2h2ol8IOAEAjT6SF/4ztSP3phEI64qTVUC4QwBsIyLQLD/a2+uWSVD1aA66paX0rBnzJvTe799u5+ihgBc+4NeLDgBAoMT0OcF8QTl6/pLevBUcs5Q0JRGQdODcrRFpxYZi2AdJEuNGtYuDnnQkGH+3b6zt5jep2OHSWbMac7DGv6scVXK4lduFvOoMQ5DCgjYmsAZplsn2GM0ZVLC6vume2JrBQgCzC4ezn9DS4ovMlvNkPLXLr+Kzt8+ZJqoOilmsrUVd0eVy3AWBAwkoPdIcTe7iKZC7TdQbEiiKAi+Oi0z94chZUYmexEQIj0tI9/Wo5QyM4vjBdekvU+pB3hNWIXEmekVdqqsb21pWbUpLDsNzEyxA2HDBwSMJUD70I+W0fDFXa42Yy0PXRqnvc5Dz23vnAiATSwf6iF5mnp+bzNRxfCi162cSjfsw8MnjLIUQtzM6ipuiDKv4S4IGEbgsykd/JuGCQxHkGB3pWfmzwhHBPIOTEDWIlifaxfqooKCgoTPf9vsi6rtvIPeqadKMkvEejzhLSqlsS+ZbqsQH5iuI0AF6Xl5Y2jId3yAyZEMBAImIIRq/r1E1nDVPvcT7VwzLmBADkuIANisAuNsfeqouGstHcZQt/pMpmlL6GUdY5abjpbLxT9Y3fIcR/sA40HAQgIbWmv+Q4ti/d5CE/pUUy+wS9PU/3i900+z2hboD48Ajfs7eede/2/Dk2JO7vTs6RMFF983R/qRUqnr5bmGhtWfHHkm8CM0V9n0NS+ozD4N3CJzUyqdipQh3+Z6Ael2JMC5Zvq9pPvtcrlscz9R/GD6CBKryhoBsAnkaTXLN5UE5SJLF4RoXH0U7QVP2x2JUSa4GBkihfBQ69ZiVrdKVmt+ZHCDFyDQjwAtinUrtVlX9Ttk1deRKvcv8xYWJltlAPQaRECI73i9+aavXByMtSUlJR5NVR/WG1uCyRdWWkVZHlZ+ykwj0RLDlTFcfmrot009g+Y8TxjOXpwHgVAIqBLuJd2uXu6zxf2Un5+fwrg4JRRWTsiDANj4UtrucbGicFZtDNukDRtGMJ9vObXcnBy2rEgXQCuPMk6s6upGRrqr8A8EzCCgL4oV54m/gmra75ghPyiZgp2p7ep5gvZOxLstKHCDJ5a5CFY/K7jGtYf14az9jln69YWX3voTNSifI9UIriwLVx9N4TN/OLlgR4drpxH5qXGCa0L8nxGyIAMEjiAg+IgjjplwgGtuW9xPezu0hTSdwG2Ci7YQiUqCgcVALa3dikuZ09RUa11FUF/duOOT/9CLOt1A1yJbFFWaGe/8LzGT17If2UThXZQRWL++YhdT3PqiWJ1Wu06V4FkVlQ2/ttqOSNEvfQ7wAXBUjqeJDlGTkzM71WqWtMjan6gi+G2ZdtDw5xfbm9a8aIDOLgNkDCmChkAfn5NTbHpP85BG0MmM7OlzqOEfQ6CHA4XzIRGg9pXukDIGmYkL9awgsxieXN/qjRqTbjJcsI0EIgA2rjCEoijXtDXVNBsnMgRJ9SvvoRfA7BByRncWIabTytC/jG4I8B4EQiewoanqFZeLzwtdgnE5BdN+OtGbd4VxEiHJCgI0f3V8Z3dH3eTJhXK2HBrAyYkZufcIzYKKIOeG7B5BDfMdA7hl8CER09m9vchgoUGJ06c+aKpm+XoEQRmNxI4i4GLKPhkGU+MfNSZb+9mxq/sXZMEx1lphrnYEwAbxVTj7QWtTzTMGiQtNTH0FLc6hRXSLTWhgAs71U1a/sjDg1EgIAiBwCAH9GUjPwjsPOWjZD/HQxMx8zAcMk79FQ6A/t5p6Xr/a3dtT7/XmSVmB9aBifTitHvzSyKCbDx6T9y/vVEbFPmGEPmpEkFRp58VG2BuKDL2s1J3dj5Gvp4eSH3lAIBACqssnoTGJUR8Wy7Vy+kd6Zt5FmmA/DYSJk9MgADag9KiF9R9tLXX3GiAqdBHrKi6k4PcPoQtATqrocCbUx9n6NSeABgiAQGgEii6YehvNB14ZWm4jc4kRXFOXZmUVHGWk1GiTZdUQ6P6cKbA5W+PiOQqCp/c/btb3yZNnHJOWmbfamuCXvOLiP62VlXuN8I8LZbMRcoaXIS7NzMy1ZOpVelae3uhGdSB8QMA8AjEsSdK9xDyiU/zKPE8Gl+z1TvuaENpjlCJi9/896D0C4IMkQvyXVj9ccdK41BtDzG5MtvrKNNru6ElqNkJ5hk90DPP1/Jdt2OAJXxQkgED0EaAFqLTEuOSr6Nn4ltXeU0v6uF7Nt1hfwddqW5yq3+oe4IPcqJfvOJVpqyd6p91vVm9wcXGxi3o/FnT19r5Ewa+UYPugf/3+FR7u+nO/3+F9Vdgb4QkIODf3C/a3nJxSaYvmUHnFpHtzH6Mh6j8J2EokBIEQCTQ2LtNHU4S1LVmgqmnkywI9GA00vRHp0jNzL1YZX0e6pWz3ZITN4chAwBQOPc6fH5XsvkJfBTUcMWHlras8iQm/vuKzlNXpwrLVMZmFlxYSu9sx5sJQELAZgfr68t2Kh19Eo2OkDL8c0n3BJr2w8a2/DZkGJ51CQO+VWKBy7e20jNxfUY/jcUYYrgdSaRl5V23avGOjpmn3k0zLFt6ihqOy5ubql43wS5fBPS5ZATC1GYi0jq51j8lYhd2bU3g8lVe1xsQ1RrGCHBAYlgCX1aAkFAoslmdmzjB9m0690So9I/dnmiYW0wDsqIklEAAPe7UPkoDzzfEez6yqqirrVj1tWDGKcX8lWSh1btQgRCLrsGA3srrll0WWU/AGBOQRaG2o+R/nylzSSB2x1n7IgJI0b963rbUC2g0jIFgiBVs/px7H9ykQXpqekXdtdvb0Y4OR3xf0Zk7P0+f5vvfB9g9p2N+/aaj1V4KRYXxartFCO6VGym1du3oTDWbcZqTMoWWJKytWrXt09uzZplSk9dVpJ2bk3ap29bxO5TV5aFtwFgQMJ9BmuMTBBR7j13prMzPzTdt+zZudN62ze+0LtOKzvnNCxA977o9a2lCV/kqd/53v4S5R1NCwWspQiAF5vfpqDNv67hI6hyX/BwRkwEHOH2Jrl29kU2dbPpTTAG8gAgSkE2hrrilP8077FQWg+oqS1n649ue0zOmvtjevWWutIdBuFAEKgvWt6+ZQIDSnx6+xNG/um3St/Y8z/hpXxMdM8H20Ivg+2h0whjMtmRpkRmpMO50LfvZ7m3ecS20zCUbZYoQcGjHxZEtL9WtGyDoog3qUBTUS1BGjyw8eM/tfKperP9nWmUn32zeNut/0bZY6u3dcuW1Xz4+pq/kUs32AfBAYiIDCXbWaUH800DkzjtHzbJxPU5+jNQl+PeGcU367aNEinxF60rJypzCN3aT6tUuMkOdEGQiAgy81H1dcl7Y3rnk1+KwG5tj27r9I2lQDJULU4QSESKYKVBl7a6WXnVbUc/hp/AYBEBieQFtLbSnNq5xAlWJLt2ejeU1umi7yTFZW7kTaq/394S1HCp2AvggWVcIc8SFT9VWAT6d/LxKabvJBy2mgrP7rs4P0/eBxPY09PhT8djO3crsZ1lAQXEv3n7QAuM8HClKF8NdP9ObWUQx+/4RzT1sSbOVd76V//+OdXqGKuR3d26+gYrN8r2EzygcynUNgZJKyfuceVQ9CZa4r4RGadgdN5ZlPgfCDMYryz8bGNR8HSy1tUv6XmUoBr8bm0z2lPyuj+oMAOMjipxdJCbVo1gSZzdjk9RV3MqF9w1ihkDYwATGefazpQ0NuGfg8joIACAxFQO+Boj06r9Z29rRR4HHGUGklnEv1qWxpQUFBtqXTVyQ4apSKvkWw7BcvGuWefeQIfkf7+up3zTBIxMYu5d1df+trBDJDwZAyxTTSO+35jW/voWC4lSu8lcZZPq8IZZvwaLvcmrJbVV0xQvSMEYorlQJ1mn8tzqFnRfamD7ZPpLxxQ4rHSRCQSEB/b9CIikq6TudIVNunih7Dx9OCt3f0CvELsuEl+q3fS62Ki7+vany3W7h3eTyip0sVY7gQY2hxuFSFixNpFEwWNR5lC596tGyb7awPAXAwpcN5aXtL7SPBZDE8bX3FdRT8Rvz+XIZzC0egEN9nayuWs6kz14UjBnlBIFoJ6Fu6TMyediH3cz0ITraSA+kfv3OP/xG9R0wPzq20xQm6ndQD7ASeA9lIldgXE+Kn0MKLtQOdDvtYe/3KT6nCvIoCy1lhCwtZgEihrAVUKS/Qbzoais5YL2O0sjf98n8mVaNlf/p9cHP2g4GvtiFAozXo/cGkB8AHAdC7S5/6oe9xP4HukYUqLYagf/x0N/npntI/B+8d2s8Xn0EIYBGsQcAcflhh/PENLbV3HH5c6u+6Ffl0WT8gVSeU6U8ShcbOPcrWr4+KpeFR5CBgBoENjXVv0BIbV5NsG7ySxWW06uXPzfATMkEgGALUCKNSReyG+vrSA1FgMLmDSSv+FUxqpAUBEBiYwHnnnLpC7sJyA9uBo+ERQAAcED9ed+IJY24IKKlZiepWfJVuuMUUiMmcd2CWN86TK8RJzL/7T84zHBaDgH0I0Aia5dTbdbsdLKIo/A5vVv6FdrAFNkQxAc7vbG2te85sAjMvmFpOi4NJ2xLJbH8gHwSsIqDPZade4Hut0g+9xhBAADwcR85fS4xPvoT2+j0wsGC4DCacX7fqGFqJZCUFv5YOHTTBM2eJFOJ6tnaFZcNenAUL1oLAwARoUSyaU8/LBz4r9SjXNPXxtOxpFm99I9VnmynjdRSU7bWZUdLMod7fypkzJpfKUEh782qM81/J0AUdIBDpBBJiU/9Kz64dke5nJPuHAHiI0qWX0xY3iymqry/fPUQyc0/V1SUyzVdBgwbHmasI0gMiIMSDbN3KsQGlRSIQAIEjCOjzbmPdiXOp8vC/I05KPkDzuJKEypdmZs4YLVk11BEB6kV5iivsZ9EIg67/d2Pd8Vf1BaaSAMy8YPJTBP0lSeqgBgQilkB9fVkHvcvujFgHo8AxBMCDFjLfz12uWS0tqzYNmsTsE/pEd975NAW/+mR3fOxAQLCjmKYusoMpsAEEnEqgsXHZPoW5LiL7rWtcPAiPtmvxi96nacsVfWERfCQTKJox5R8UlLVJVmuxOt5J64pcvH59xS6ZhujBNq3CTNO5uL7yFD4gAAJhEDhx3Og/05Qe06cvhGEisg5BAAHwgHDo5cDFlW2NazYMeFrWwfqKv9Ow5yJZ6qAnQAKCXURDoa8NMDWSgQAIDECgtXXNWxRxXmWHyjj1BOdv2ryDVuHFRzYBPShT3KKEeoNNXgRKtmcD6yM/u7niurC1tcaSntj2ppp2qt/8aWDrcBQEQCBQAjQ1UmUu9w3R8uwKlItT0iEAHqCkFM6+t6GlbtkAp+Qdqqv4CS2WukCeQmgKioBg92AodFDEkBgEjiBAi/+spN6/2444YcEB2h7pe7RVzDwLVEe9yrb1dRvpOoiCBgjey7hycXvzmhorC33sqLhbI7bXnfOPybffWMkXuqOHQHvTmhcZU34QqR7TVI27KcDfFIn+IQA+vFQ5u4cWafnr4Yel/q5fUUwttJhbIBV6kMqEGM00EQUVtiC5IDkIBElgQ0sNPev4M0FmMyU5rQx9vzc7P8MU4RA6JIGZM6b8jCpai4dM5OyTPnqvF7c319B+vNZ+KisrezycXULDNz+11hJjtes9cW7mutzD3f82VjKkgcDgBNpbav5C196jg6dw7JkH2ltrb2GCf+JYD4YwHAFwPzg0oX3JrAum3tLvkPyva1dkkdLHaOgzvZvwsTUBoc1la1fm2tpGGAcCDiAwOsU9jyoQr1huqhCxql99Njt7+rGW22ITA+hNJOVdpA+FTh0VdxVdB2tt4rqRZuzm3FVk+ciyfh41N9d+xN3u2dT4tKffYUd/FZzf0tKyptHRTsB4RxJIiDtxIT27qh1p/ABG00N/w9jRcTcNcCpiDiEAPliUnLW6+RipKzIeVP35v3WrTqXAdyn9xX1+DF/sTUBo97G3Vsba20hYBwL2JlBVVdXpUfhFVIGQuijQIFSO6VHVJTk58/AcJkCcxoYPwsnww3rPZEqi60IawmrJ/FjDHdL5cf4Wc7OM9pZq21WO9XVOPAoriIQgmBb3umtDcy3mNptxEUPmsATq6x/pdvPUOfQOs3R6w7CGBpJAf/7Gx8/Wn8eBJHdqGgTAVHLU0vFejOKZ09xc1mVZQbZWj2HcT3v9slTLbIDi4AkIcTr7SLs1+IzIAQIg0J9AU1PtO4rCr6AnsvUr1AqRvr9rM1Z7pwKS1QN88Fqorq7eE++JzacXc/3BY079V+8Roq2OvBsa696wqw/UE9zmYiKPbN1kVxuHsYsuUeWH7c21Px0mHU6DgKkE9BiCgmB9VMVTpioyUzhnjYlxyVPb61dG1PSIgZBFfQCs9zgINytsaqraOhAgKcfq6uLY/m695/c0KfqgxGAC4idsfeUZBguFOBCIOgKtTbVVCue2qMhqTFyT5s2L2MVNAr24ZPYAH7SpoaFyW2Lc1Ok0+tqRPXpUr+hiCr955gVTZ8je6uggw2D+pcXonkuIS6HtFu0xFz9Q24nzPs6Va9pba/4YaB6kAwEzCehB8IbW2m8oiqJvN7bfTF3Gy+ZPeXjq9Pr68t3Gy7afxCgPgGlFRhp2Z2nrrD7Xl3c+Su3s2fa7PGBRQAQEi2F+9f6A0iIRCIDAkATaWmp+TxXbp4dMJOskF7/zZuXSEFF8ZBOory/10wIsN1OAc3VfQCnbgFD1cbZeEe7x+nBcfV5zqGJk59MrvVRxL6YGqG8R727Z+oPVRxWnBh7jGU8LED0RbF6kBwGzCbQ11zzkiuFpdC9Zv7bFMM7SNI2d9Jy9Qg/cLR0JO4ydRp+O5gBYKIq4rr2pdp3RUIOSV1/xB+r5vTyoPEhsPwJC5LC6inn2MwwWgYDzCBw9NvF6quButNpyIYRLVcXTXu/0qB2dI3sI9OFlrgc4LhZ7tt17J6kS+RFNp1pAC2lO1fe4PtwPp/ymXTDud3NXOk1efs2mNu+mrSq/P7NwSk7buqr3bGojzAIB1tpQ8z8aEp1OzwXbTqehAH1xjMt1Dj1n7dHoLPG6idoAmCvsZ23NdU9KZH2kqrUVC6jnN+qH2B0JxqFHuPY7tn59kkOth9kgYBsCy5cv3+/iMRdRELzDBkaNVLm61FtYmGwDW6SbYMUQ6MOdbGlZtUnvneQuPpUqk7Tvpo0+nG1TuPKDhLgTTm1vrVvkpF7fwSg2N1e/fP65p46noP7blOaTwdLJPc47KfC9MzE+5eS2lrp7I4GzXH7QZgUBvUeVngsLaJFHL73Paq2wYSCd9Bxd7WJsYntL3WWNjWs+HihNpB9zR7qDA/rH2UPtzXW/HfCcrIP1KwuZpv5dljrokUBAsKOYuktfEMsWcxgleAwVARGQMw+Ilur1B2SOQxLpQU9a5vSvM+Evp5WYrG2sFexEbVf3IuoRvpKCgv9v795j5KruAwCfM7t+YRNiSEKDsIA2bUAhUhpSng7g8CoGO6U1qUSDWkhFC2lUaIVUqS+a/pP8gYTSRgmIpEFNWkVGguB94Fdm1+D1GruJ0tQ1UltCaWlESUhLMDH7mNMzNE5kjO3Z3blz78x8I61mZ+bec37nO3dn9jfn3HNbXhW5NlVLjQ6cB7ZkyZKWY5pr9+cR4IPZv6hz2abnEk9zxlZOfM4bfnx8Q27w7XnRyMvnsn87t83/zO5LtfDgiiWnPDg2tvGVdpZdhbIeeOCBZt98bt26dQ9993sHbstH/R35+O/8TIgYn4spfWnRwOBnW12rZbo2nUKjsGM2F52miumj4mI+FO/AbK1i0/Jjc/HZot5fXm92Ph939lD7y7pvLjaX674if6ZdEdLs76cUrssDYJ39XIvxtZz4PjIQBv56LpcLy++1+ZSI4o/NTvdNtijn9oEL1hT2gX3sFsUtK5Zdel3z/KJjb1fgq/Xh9+WFTp/IH94rCqxF0WUIxHgwDC55d1h91XNlVK9OAgQI9IvARRddffZMmPnd/Fl6c07OTi663TnpfTnFtHFgYODB3Tu3TRZdX5XKz77xwguvvHI2pFtyXGvzP+8nFRdfPJCnZg7n8xK/uPaa1VuN9hYnreRyBC6++ENnTDfCb+erzG3I719nFxhF/g4z/EO+TNhDiweWfaUbFuUr0OKwovsrAY7x2wMrl6zePTr68mEKnXwwvnlVSFOT+YA/rZPVqquDAjEvgX/59Td1sEZVESBAoG8FbrzxxoF/f/6l8xuNdHX+p6a5aNkFOWHLM/wWdsuj/TnfS3tyKVtqYWDrsmWrJ0v98nxhzWnb3rfddtuib/7jM5elMHtt/lLgwpwMvz+PaC3gutl5QdKYvpnL2hriwLZffO9ZEz8egW5bzAoiUFWB81df8QtpNq1PjbQ6v39dkEcHf2YhseYvj57NI7b1fL91yeCSbc1V9RdSXq/u2z8JcIz/NbB0yQW7x0b/s7TOnBx5SzjYeDJ/oL63tBhUXLxAc4pkLV0YLl3XnPLiRoAAAQIdFLjkkvUnzoRX39OYbZydR1jOyYlVvg+n5394TsyfvyemEE/M/xwuzV9EH8jJWx7VjT/M4f0wv/58nu79dBpI+/M+Ty9ffPL+Xpze3O6uaCbE3/j2M+fWQuNd+fJhZ+YreZ+RjU/N13I+IYa0PP++LN/nqa4xDz6k/JPvY/qPWhz451RL+89458n/tnHjxtKnqbbbRXkE5iPwS5devSpNzeS/p+bfUTgzl7Eq/+QZo2l5fn86If9d5af//+8ov7/lS4HFF2N+3xqIaX+ttmL/zp2PNd/P3I4j0B8JcAyvxNrgB/dMbC1v8Yx6fTBf7mgkf/hedZw+8XJPCMSdYc31q3uiKRpBgAABAgQIECBAoEcEOnsCdglor09hCvEjpSa/zXbHA/dLfks4AEqrMl/Xub5pQ2nVq5gAAQIECBAgQIAAgSME+iEB/vjeya+PHtHyTj4xNvRnOfm9tZNVqqsCAjF+Ouzbt7gCkQiBAAECBAgQIECAAIEs0NMJcF717FNP7dp+f6k9XR/6aE5+/6LUGFRejkBKPxtefPb3yqlcrQQIECBAgAABAgQIvFGgZxPgvMDFV5+a2N68Jmt5tx0jl+WFHr5QXgBqLl8g/VHYu/eE8uMQAQECBAgQIECAAAECvZkAx7DzbSuX/mY+/zevlFbSrb757NBoPJLXajMFtqQuqES1Kb09vPLCxysRiyAIECBAgAABAgQI9LlAzyXAOen9l9ry2odHR0dfK61vd25+R4hTzRWfV5YWg4orJJDuDt/avLxCAQmFAAECBAgQIECAQF8K9FoC/L3BuGjtU9u3f7+03pyYWBampzflkd+zSotBxdUSaI4C/2DmjmoFJRoCBAgQIECAAAEC/SfQMwlwPuf3YG2gtn7Xrs3/Wlo3plQLU9//uzzye35pMai4ogJGgSvaMcIiQIAAAQIECBDoI4FeSYBTrVa7OS96tavUvtsxfG8e+f2VUmNQeTUFjAJXs19ERYAAAQIECBAg0FcCPZEAx1C7e/fE9odL7bn60J2hke4sNQaVV1zAKHDFO0h4BAgQIECAAAECPS7Q9QlwXvTqc3t2b7+31H7aMfzhfLmjcmMoFUDlLQkYBW6JyUYECBAgQIAAAQIEihLo9gR4+MxVp3yiKJyWyt2x6fx8uaN83m/odsuWmmujhQrkUeDmQmluBAgQIECAAAECBAh0XKB7k7YYv3HySYt+fePGjbMdVztUYX30zDAbHsvJ7wmHnnJP4JgCzVHg6ZduPuY2XiRAgAABAgQIECBAoBCB7kyAY3xu2aJF12/ZsuVAISqtFFqvvzXE2ZG86amtbG4bAj8RSOHOvFJ4/MljvxAgQIAAAQIECBAg0BGBLkyA4/+G2uB1Tzyx+bsdEXqzSvbtWxzigUdyEnPOm73sOQLHFGgeN2Mj1xxzGy8SIECAAAECBAgQINB2gW5LgKdjrG3YO7Hln9ouMZcCX/zOF3Lye/lcdrEtgcMEYvqDwx57QIAAAQIECBAgQIBA4QJdlQDnFZ9v2zO5bVvhKseqYHzTX+bk96PH2sRrBI4rkNJV4cnH33Pc7WxAgAABAgQIECBAgEDbBLomAc4nTH5yz+TXv9S2ls+noLHhW0Ij/Ml8drUPgSMEpmfuOuI5TxAgQIAAAQIECBAgUJhAVyTAeeT3y3t21/+8MIVWCq4PXRlCur+VTW1DoCWBGH4j7Bh5e0vb2ogAAQIECBAgQIAAgQULVD8BjmEsX+v3Ywtu6UIKqA+dm3d/OE99XrSQYuxL4DCBlJbmY+qOw57zgAABAgQIECBAgACBwgSqnQDHuH/F0pNuyNf6nSpM4HgFP7nltBBTvtxROul4m3qdwJwFGo3bw969vliZM5wdCBAgQIAAAQIECMxdoLIJcJ72/MJgWLx2bOzR/5l7s9q0x7c2Lw8zr20KKaxqU4mKIfBGgVPDqy+sf+OTHhMgQIAAAQIECBAg0H6BiibA8dVQi+smJx9/tv1NbrHElAbCS9Nfzcnv+1vcw2YE5ifQaJQ7xX9+UduLAAECBAgQIECAQNcJVDABjo2BgdpNeya27ylVc3z4r/K05+tKjUHl/SJwTaiPnN4vjdVOAgQIECBAgAABAmUJVC4BzlOf79o9se1rZYG8Xu/Y8N15caLbS41B5f0jkEL+O0y/1T8N1lICBAgQIECAAAEC5QhUKgGOId63Z3L7Z8qh+HGt9U0bcjLy6VJjUHn/CcTGrflLl3y5azcCBAgQIECAAAECBIoSqFACHB+97tpL/7CohrZU7tjoRSHGv5WItKRlo3YKpHBW2DG6pp1FKosAAQIECBAgQIAAgcMFqpEAx/jUotopN91zzz2Nw8Pr4KP64+8KYeaxnPwu7WCtqiLwU4E0azGsn2r4jQABAgQIECBAgEDbBUpPgPOcz+8srg2u27Vr44/a3rpWC9y97ZQQZ0byis9va3UX2xFov0D81fDE0Mr2l6tEAgQIECBAgAABAgSaAqUmwDGGHwzWFq2dmNjy36V1R72+NLx68Gt55PfnS4tBxQSaAs3ZB414EwwCBAgQIECAAAECBIoRKDEBjlMhDt6wa9eWp4tpWgulNhcdigceypnHJS1sbRMCxQukJAEuXlkNBAgQIECAAAECfSpQWgKcL3d0655dW8dLdR8f+VQedftIqTGonMDhAhe5JvDhIB4RIECAAAECBAgQaJdAPgW3T2/jw78TGo3P92nrNbvSAvGusOb6+yodouAIECBAgAABAgQIdKFAaSPApVqNjVybk9/PlhqDygkcTSCGG4/2kucJECBAgAABAgQIEJi/QP+NANeH3xdi44m84vOK+bPZk0CBAjGmsDitCheve77AWhRNgAABAgQIECBAoO8E+msEuD5yek5+hyW/fXecd1eDm4uzTYcN3RW0aAkQIECAAAECBAhUX6B/EuDJkbfk5Ld5rd/Tqt8tIux7gUY0DbrvDwIABAgQIECAAAEC7RbojynQ9fpgiK80R36vbjeg8ggUImAadCGsCiVAgAABAgQIEOhvgT4ZAT7weclvfx/oXdf65jToqdqvdV3cAiZAgAABAgQIECBQYYHeT4DHh/44hPSxCveB0AgcRSBJgI8i42kCBAgQIECAAAEC8xHo7SnQ48M3hZS+nH96u53z6Xn7VF8gxpmwtHZKuHDty9UPVoQECBAgQIAAAQIEqi/QuyPA48OXhtT4G8lv9Q9CER5FIKXBcHD2iqO86mkCBAgQIECAAAECBOYo0JsJ8JOj786J76P5vN/Fc/SwOYGKCcRfrlhAwiFAgAABAgQIECDQtQK9lwDv3PyOMDMzmhPglV3bKwIncEgghWsO/eqeAAECBAgQIECAAIGFCfRWAjwxsSxMTT+WR37PWhiLvQlURSCdEeqbz65KNOIgQIAAAQIECBAg0M0CvZMAp1QLUy99Ja/4fEE3d4jYCRwpMG0a9JEoniFAgAABAgQIECAwZ4HeSYB3DN+bpz3fMGcBOxCovoAEuPp9JEICBAgQIECAAIEuEOiNywONDX0iJ7+f6QJvIRKYu0AMPwppxclhzZqDc9/ZHgQIECBAgAABAgQIHBLo/hHg8aH1edrzfYca5J5AzwmksCwMHLis59qlQQQIECBAgAABAgQ6LNDdCXB9+AN55Pfv86JX3d2ODne66rpQoBE/1IVRC5kAAQIECBAgQIBApQS6N3Gsj54ZQmMoJ78nVEpUMASKEEjpkiKKVSYBAgQIECBAgACBfhLozgS4Xn9riLMjuaNO7afO0tY+FojhvLBv3+I+FtB0AgQIECBAgAABAgsW6L4EuJkExAOP5KnP5yy49Qog0C0CKS0NLz53XreEK04CBAgQIECAAAECVRTovgT4xWcezMnv5VXEFBOBQgXi7MWFlq9wAgQIECBAgAABAj0u0F0J8NjQJ/M5vzf3eJ9oHoE3F0hBAvzmMp4lQIAAAQIECBAg0JJA9yTAY8O35JHfP22pVTYi0IsCFsLqxV7VJgIECBAgQIAAgQ4KxA7WNf+q6kNXhhhGcgK8aP6F2JNADwgMxp8LH7z+mR5oiSYQIECAAAECBAgQ6LhA9UeA60PnZpWHJb8dPzZUWEWB2ehySFXsFzERIECAAAECBAh0hUC1E+Adj78zxJQvd5RO6gpNQRIoWiA2nAdctLHyCRAgQIAAAQIECBAgQIAAAQIECBAgQIAAAQIECBAgQIAAAQIECBAgQIAAAQIECBAgQIAAAQIECBAgQIAAAQIECBAgQIAAAQIECBAgQIAAAQIECBAgQIAAAQIECBAgQIAAAQIECBAgQIAAAQIECBAgQIAAAQIECBAgQIAAAQIECBAgQIAAAQIECBAgQIAAAQIECBAgQIAAAQIECBAgQIAAAQIECBAgQIAAAQIECBAgQIAAAQIECBAgQIAAAQIECBAgQIAAAQIECBAgQIAAAQIECBAgQIAAAQIECBAgQIAAAQIECBAgQIAAAQIECBAgQIAAAQIECBAgQIAAAQIECBAgQIAAAQIECBAgQIAAAQIECBAgQIAAAQIECBAgQIAAAQIECBAgQIAAAQIECBAgQIAAAQIECBAgQIAAAQIECBAgQIAAAQIECBAgQIAAAQIECBAgQIAAAQIECBAgQIAAAQIECBAgQIAAAQIECBAgQIAAAQIECBAgQIAAAQIECBAgQIAAAQIECBAgQIAAAQIECBAgQIAAAQIECBAgQIAAAQIECBAgQIAAAQIECBAgQIDAIYH/AwOQfbjt5+9WAAAAAElFTkSuQmCC;html=1;fontStyle=1" vertex="1" parent="1">
          <mxGeometry x="1030" y="300" width="360" height="120" as="geometry" />
        </mxCell>
        <mxCell id="JCk_Zbr7SEMXJE-FoX-Q-26" value="&lt;b&gt;Network: 192.168.1.0/24&lt;/b&gt;" style="text;html=1;strokeColor=none;fillColor=none;align=center;verticalAlign=middle;whiteSpace=wrap;rounded=0;dashed=1;labelBackgroundColor=none;fontColor=default;" vertex="1" parent="1">
          <mxGeometry x="620" y="90" width="120" height="30" as="geometry" />
        </mxCell>
        <mxCell id="JCk_Zbr7SEMXJE-FoX-Q-28" value="&lt;b&gt;Remote Desktop Environment&lt;/b&gt;" style="text;html=1;strokeColor=none;fillColor=none;align=center;verticalAlign=middle;whiteSpace=wrap;rounded=0;dashed=1;labelBackgroundColor=none;fontColor=default;" vertex="1" parent="1">
          <mxGeometry x="575" y="30" width="230" height="30" as="geometry" />
        </mxCell>
      </root>
    </mxGraphModel>
  </diagram>
</mxfile>
